<?xml version="1.0" encoding="utf-8"?>
<!-- Generator: Adobe Illustrator 21.1.0, SVG Export Plug-In . SVG Version: 6.00 Build 0)  -->
<svg version="1.1" id="Layer_1" xmlns="http://www.w3.org/2000/svg" xmlns:xlink="http://www.w3.org/1999/xlink" x="0px" y="0px"
	 viewBox="0 0 320 48" style="enable-background:new 0 0 320 48;" xml:space="preserve">
<style type="text/css">
	.st0{fill:#FFFFFF;}
</style>
<title>page_titles</title>
<g>
	<path class="st0" d="M33.2,8.7c3.8,0,4.8,3,4.8,6.7s-1,6.7-4.8,6.7c-3.8,0-4.8-3-4.8-6.7S29.4,8.7,33.2,8.7z M33.2,20.1
		c2.2,0,2.7-2.1,2.7-4.7s-0.6-4.7-2.7-4.7c-2.1,0-2.7,2.1-2.7,4.7S31,20.1,33.2,20.1L33.2,20.1z"/>
	<path class="st0" d="M48.4,19.2v2.7h-2v-2.7h-6.7l7-10.3h1.8v8.4h1.8v1.9H48.4z M46.4,17.3v-5.1L43,17.3H46.4z"/>
	<path class="st0" d="M66.7,35.2V3.8h12.2c8.9,0,14.1,6.8,14.1,15.8s-5.2,15.6-14.1,15.6H66.7z M71.5,30.7h7.4
		c6.1,0,9.3-4.9,9.3-11.2S85.1,8.3,78.9,8.3h-7.4V30.7z"/>
	<path class="st0" d="M118.6,26.2h-16.9c0.5,3.3,3.1,5.3,6.5,5.3c2.3,0.1,4.5-1.1,5.8-3c1.2,0.5,2.6,1.1,3.8,1.7
		c-1.9,3.7-5.8,5.5-9.8,5.5c-6.1,0-10.9-4.4-10.9-11.2c-0.2-5.8,4.3-10.8,10.1-11c0.3,0,0.5,0,0.8,0c6.1,0,10.7,4.3,10.7,11
		C118.6,25,118.6,25.8,118.6,26.2z M114,22.8c-0.3-3.1-3-5.4-6.1-5.2c-3.1-0.2-5.9,2.1-6.3,5.2C101.6,22.8,114,22.8,114,22.8z"/>
	<path class="st0" d="M122.7,19.1c0.3-3.1,3.7-5.6,7.6-5.6c3.9,0,7.5,1.7,7.7,6.3h-4.5c-0.2-1.6-1.6-2.3-3.1-2.3
		c-1.1-0.1-2.2,0.4-3,1.2c-0.4,0.6-0.4,1.3-0.2,1.9c0.3,0.8,1.5,1.3,2.6,1.6l3.3,0.8c4.6,1.1,5.6,4.1,5.6,6.2c0,4.1-3.6,6.4-8.5,6.4
		c-4,0-8.1-2.5-8.2-7h4.3c0.2,1.8,1.7,3,4.2,3c2.1,0,3.8-1,3.8-2.5c0-1.4-1.4-2.1-3-2.5l-2.9-0.7C124.1,24.8,122.4,22.5,122.7,19.1z
		"/>
	<path class="st0" d="M146.2,2.4c1.6-0.3,3.2,0.8,3.4,2.5c0.3,1.6-0.8,3.2-2.5,3.4c-0.3,0.1-0.7,0.1-1,0c-1.7,0-3.1-1.3-3.1-3l0,0
		C143.1,3.6,144.5,2.3,146.2,2.4z M148.5,13.9h-4.7v21.3h4.7V13.9z"/>
	<path class="st0" d="M164.6,41.4c4.3,0,7.1-2.4,7.1-8.4v-1.1c-1.2,2.4-4.3,3.7-7.2,3.7c-5.9,0.1-10.7-4.6-10.8-10.5
		c0-0.2,0-0.4,0-0.5c0-6.8,5-11.2,10.8-11.2c2.9,0,5.9,1.3,7.2,3.6v-3.2h4.6v18.1c0,9.8-4.6,13.8-11.7,13.8c-4.2,0-8-2.3-9.8-6
		c0.8-0.4,3.1-1.6,3.9-2C159.8,40,162,41.4,164.6,41.4z M165,18c-3.5-0.1-6.4,2.7-6.5,6.2c0,0.1,0,0.2,0,0.3c-0.2,3.5,2.5,6.4,6,6.6
		c0.2,0,0.3,0,0.5,0c3.6,0,6.5-2.8,6.6-6.4v-0.1c0.2-3.5-2.5-6.4-5.9-6.6C165.4,18,165.2,18,165,18L165,18z"/>
	<path class="st0" d="M187.5,35.2h-4.7V13.9h4.7v3.2c1.4-2.3,3.8-3.7,6.5-3.6c5.1,0,8.1,3.3,8.1,9.3v12.4h-4.7V23.4
		c0-3.4-1.7-5.3-4.5-5.3s-5.5,1.5-5.5,5.7L187.5,35.2L187.5,35.2z"/>
	<path class="st0" d="M220.9,3.8h4.8v27h12.6v4.4h-17.4L220.9,3.8z"/>
	<path class="st0" d="M259,32.2c-1.4,2.3-4.5,3.5-7.1,3.5c-5.9,0.1-10.7-4.7-10.8-10.6c0-0.2,0-0.4,0-0.5
		c-0.2-5.9,4.3-10.8,10.2-11.1c0.2,0,0.4,0,0.6,0c2.6,0,5.7,1,7.1,3.5v-3h4.6v21.2H259V32.2z M252.4,31.2c3.5,0.1,6.4-2.6,6.6-6.1
		c0-0.2,0-0.3,0-0.5c0.1-3.5-2.8-6.4-6.3-6.5c-0.1,0-0.2,0-0.3,0c-3.5-0.1-6.4,2.6-6.5,6.1c0,0.1,0,0.2,0,0.4
		c-0.1,3.5,2.7,6.5,6.3,6.5C252.2,31.1,252.3,31.1,252.4,31.2L252.4,31.2z"/>
	<path class="st0" d="M270.2,35.2V2.4h4.7V17c1.3-2.3,4.2-3.5,7.2-3.5c5.8,0,10.6,4.3,10.6,11.1s-4.9,11.1-10.7,11.1
		c-2.9,0-5.8-1.3-7.1-3.5v3H270.2z M281.5,31.1c3.5,0,6.4-2.8,6.4-6.3c0-0.1,0-0.2,0-0.3c0.1-3.4-2.5-6.3-6-6.5c-0.1,0-0.3,0-0.4,0
		c-3.5-0.1-6.4,2.7-6.5,6.2c0,0.1,0,0.2,0,0.3c-0.1,3.5,2.6,6.5,6.1,6.6C281.2,31.1,281.3,31.1,281.5,31.1z"/>
	<path class="st0" d="M27.2,24.4v-1h23.9v1H27.2z"/>
</g>
</svg>
