<?xml version="1.0" encoding="utf-8"?>
<!-- Generator: Adobe Illustrator 21.1.0, SVG Export Plug-In . SVG Version: 6.00 Build 0)  -->
<svg version="1.1" id="Layer_1" xmlns="http://www.w3.org/2000/svg" xmlns:xlink="http://www.w3.org/1999/xlink" x="0px" y="0px"
	 viewBox="0 0 320 48" style="enable-background:new 0 0 320 48;" xml:space="preserve">
<style type="text/css">
	.st0{fill:#FFFFFF;}
</style>
<title>page_titles</title>
<g>
	<path class="st0" d="M34.6,8.7c3.8,0,4.8,3,4.8,6.7s-1,6.7-4.8,6.7c-3.8,0-4.8-3-4.8-6.7S30.8,8.7,34.6,8.7z M34.6,20.1
		c2.2,0,2.7-2.1,2.7-4.7s-0.6-4.7-2.7-4.7c-2.1,0-2.7,2.1-2.7,4.7S32.4,20.1,34.6,20.1L34.6,20.1z"/>
	<path class="st0" d="M44.3,15.9V14h1.5c0.9,0,1.6-0.6,1.7-1.5c0.1-0.7-0.3-1.5-1-1.7c-0.3-0.1-0.6-0.2-0.9-0.1
		c-0.7,0-1.5,0.4-1.8,1l-1.6-1.1c0.8-1.3,2.3-2,3.8-1.9c2,0,3.6,1.6,3.7,3.6c0,1.1-0.6,2.1-1.6,2.6c1.3,0.6,2.2,1.9,2.1,3.4
		c0,2.4-2,3.8-4.5,3.8c-1.8,0-3.5-1-4.2-2.6l1.8-1c0.5,0.9,1.4,1.5,2.5,1.6l0,0c1.7,0,2.5-0.9,2.5-2c0-1.2-1-2.2-2.2-2.2H46
		L44.3,15.9z"/>
	<path class="st0" d="M67.1,3.8h18.8v4.5h-14v9.3h12.3V22H71.9v8.8h14.5v4.4H67.1V3.8z"/>
	<path class="st0" d="M90.7,13.9h5.6l4.1,5.9l4.1-5.9h5.6l-7,9.7l8.3,11.6h-5.5l-5.6-7.8l-5.6,7.8h-5.5l8.4-11.6L90.7,13.9z"/>
	<path class="st0" d="M119.8,17.1c1.3-2.3,4.2-3.6,7.1-3.6c5.7,0,10.6,4.4,10.6,11.1s-4.8,11.1-10.6,11.1c-2.9,0-5.8-1.1-7.1-3.5
		v13.4h-4.7V13.9h4.7V17.1z M126.3,31.1c3.4,0.1,6.3-2.6,6.4-6c0-0.2,0-0.3,0-0.5c0.2-3.5-2.5-6.6-6.1-6.8c-3.6-0.2-6.6,2.5-6.8,6.1
		c0,0.2,0,0.5,0,0.7c-0.1,3.5,2.6,6.4,6.1,6.5C126.1,31.2,126.2,31.2,126.3,31.1L126.3,31.1z"/>
	<path class="st0" d="M162.9,26.2H146c0.5,3.3,3.1,5.3,6.5,5.3c2.3,0.1,4.5-1.1,5.8-3c1.2,0.5,2.6,1.1,3.8,1.7
		c-1.9,3.7-5.8,5.5-9.8,5.5c-6.1,0-10.9-4.4-10.9-11.2c-0.2-5.8,4.3-10.8,10.1-11c0.3,0,0.5,0,0.8,0c6.1,0,10.7,4.3,10.7,11
		C162.9,25,162.9,25.8,162.9,26.2z M158.3,22.8c-0.3-3.1-3-5.4-6.1-5.2c-3.1-0.2-5.9,2.1-6.3,5.2C145.9,22.8,158.3,22.8,158.3,22.8z
		"/>
	<path class="st0" d="M172.6,35.2h-4.7V13.9h4.7v4.9c1.1-3.8,3.2-5.3,5.8-5.3c1.3,0,2.6,0.2,3.8,0.8l-0.8,4.3c-1-0.5-2-0.7-3.1-0.7
		c-4,0-5.7,4-5.7,9.7V35.2z"/>
	<path class="st0" d="M188.4,2.4c1.6-0.3,3.2,0.8,3.4,2.5c0.3,1.6-0.8,3.2-2.5,3.4c-0.3,0.1-0.7,0.1-1,0c-1.7,0-3.1-1.3-3.1-3l0,0
		C185.3,3.6,186.7,2.3,188.4,2.4z M190.7,13.9h-4.6v21.3h4.6V13.9z"/>
	<path class="st0" d="M217.5,26.2h-16.9c0.5,3.3,3.1,5.3,6.5,5.3c2.3,0.1,4.6-1,5.8-3c1.2,0.5,2.6,1.1,3.8,1.7
		c-1.9,3.7-5.8,5.5-9.8,5.5c-6.1,0-11-4.5-11-11.2c-0.2-5.8,4.3-10.8,10.1-11c0.3,0,0.5,0,0.8,0c6.1,0,10.7,4.3,10.7,11
		C217.5,25,217.5,25.8,217.5,26.2z M212.9,22.8c-0.3-3.1-2.9-5.4-6-5.2c-3.1-0.2-5.9,2.1-6.3,5.2C200.6,22.8,212.9,22.8,212.9,22.8z
		"/>
	<path class="st0" d="M227.2,35.2h-4.7V13.9h4.7v3.2c1.4-2.3,3.8-3.7,6.5-3.6c5.1,0,8.1,3.3,8.1,9.3v12.4h-4.7V23.4
		c0-3.4-1.7-5.3-4.5-5.3s-5.5,1.5-5.5,5.7L227.2,35.2z"/>
	<path class="st0" d="M258.1,13.5c3.2-0.1,6.3,1.3,8.4,3.7l-3.6,2.9c-1.2-1.3-3-2.1-4.8-2c-3.5-0.1-6.5,2.6-6.7,6.2
		c0,0.1,0,0.2,0,0.3c0,3.6,2.9,6.6,6.5,6.7c0.1,0,0.1,0,0.2,0c1.8,0,3.6-0.7,4.8-2.1l3.7,2.9c-4.2,4.7-11.4,5-16.1,0.8
		c-2.3-2.1-3.7-5.1-3.7-8.2C246.8,17.8,252,13.5,258.1,13.5z"/>
	<path class="st0" d="M291.3,26.2h-16.9c0.5,3.3,3.1,5.3,6.5,5.3c2.3,0.1,4.5-1.1,5.8-3c1.2,0.5,2.6,1.1,3.8,1.7
		c-1.9,3.7-5.8,5.5-9.8,5.5c-6.1,0-10.9-4.4-10.9-11.2c-0.2-5.8,4.3-10.8,10.1-11c0.3,0,0.5,0,0.8,0c6.1,0,10.7,4.3,10.7,11
		C291.3,25,291.3,25.8,291.3,26.2z M286.7,22.8c-0.3-3.1-3-5.4-6.1-5.2c-3.1-0.2-5.9,2.1-6.3,5.2C274.3,22.8,286.7,22.8,286.7,22.8z
		"/>
	<path class="st0" d="M28.6,24.4v-1h22.8v1H28.6z"/>
</g>
</svg>
