<?xml version="1.0" encoding="utf-8"?>
<!-- Generator: Adobe Illustrator 21.1.0, SVG Export Plug-In . SVG Version: 6.00 Build 0)  -->
<svg version="1.1" id="Layer_1" xmlns="http://www.w3.org/2000/svg" xmlns:xlink="http://www.w3.org/1999/xlink" x="0px" y="0px"
	 viewBox="0 0 320 48" style="enable-background:new 0 0 320 48;" xml:space="preserve">
<style type="text/css">
	.st0{fill:#FFFFFF;}
</style>
<title>PageTitles</title>
<g>
	<path class="st0" d="M48.4,13.7c3.8,0,4.8,3,4.8,6.7s-1,6.7-4.8,6.7s-4.8-3-4.8-6.7S44.6,13.7,48.4,13.7z M48.4,25.1
		c2.2,0,2.7-2.1,2.7-4.7s-0.6-4.7-2.7-4.7c-2.2,0-2.7,2.1-2.7,4.7S46.2,25.1,48.4,25.1L48.4,25.1z"/>
	<path class="st0" d="M55.6,26.9v-1l5.3-6.4c0.5-0.5,0.8-1.2,0.9-2c-0.1-1.1-1-1.9-2.1-1.9l0,0c-1.1,0-2.1,0.9-2.2,2l-2-0.4
		c0.3-2.1,2.2-3.6,4.3-3.6c2.2-0.1,4,1.5,4.1,3.7c0,0.1,0,0.1,0,0.2c0,1.3-0.5,2.5-1.4,3.4c-1.5,1.8-1.8,2.1-3.4,4h4.7v2L55.6,26.9z
		"/>
	<path class="st0" d="M80.7,8.8h18.7v4.5H85.5v9.3h10.9V27H85.5v13.2h-4.9L80.7,8.8L80.7,8.8z"/>
	<path class="st0" d="M106.2,7.4c1.6-0.3,3.2,0.8,3.4,2.5s-0.8,3.2-2.5,3.4c-0.3,0.1-0.7,0.1-1,0c-1.7,0-3.1-1.3-3.1-3l0,0
		C103.1,8.6,104.5,7.3,106.2,7.4z M108.5,18.9h-4.7v21.3h4.7V18.9z"/>
	<path class="st0" d="M115.1,7.4h4.7v32.8h-4.7V7.4z"/>
	<path class="st0" d="M145.4,28.8v11.4h-4.7V28.3c0-3.3-1.8-5.2-4.3-5.2c-2.7,0-5.4,1.5-5.4,5.7v11.4h-4.7V18.9h4.7v3.2
		c1.4-3,5-3.6,6.7-3.6c2.9-0.2,5.6,1.5,6.7,4.2c1.4-2.7,4.1-4.3,7.2-4.2c5.2,0,8.2,3.4,8.2,9.5v12.2h-4.7V28.4
		c0-3.3-1.8-5.3-4.5-5.3C147.5,23.1,145.4,25.4,145.4,28.8z"/>
	<path class="st0" d="M176.9,30.9c-0.1-3.4,1.8-6.6,4.8-8.2c-1.8-1.5-2.8-3.7-2.7-6c0.1-4.5,3.9-8.1,8.4-8.1c3.2,0,6.2,1.6,7.9,4.4
		l-3.9,2.4c-0.8-1.3-2.2-2.2-3.8-2.2c-2-0.2-3.8,1.4-4,3.4c0,0.1,0,0.2,0,0.3c0,1.7,1.2,4.3,3.9,4.3h5.9v-3.9h4.4v4h3.9V25h-3.9v5.8
		c0,3.5,0.7,5.7,4.6,5.7v4.2c-3.8,0-6.5-1.1-7.6-3.5c-1.5,2.3-4.7,3.5-7.7,3.5C181.1,40.7,176.9,36.4,176.9,30.9z M181.5,30.7
		c0.1,3.1,2.6,5.5,5.6,5.4c0.1,0,0.2,0,0.3,0c4.1,0,6.1-3,6.1-7.4v-3.9h-6.1c-3.2-0.1-5.8,2.5-5.9,5.7
		C181.5,30.6,181.5,30.7,181.5,30.7L181.5,30.7z"/>
	<path class="st0" d="M216.3,8.8h23.4v4.5h-9.2v26.9h-4.9V13.3h-9.2L216.3,8.8z"/>
	<path class="st0" d="M247.2,8.8l6.7,23.3l6.8-23.3h5l-9.5,31.4h-4.5l-9.5-31.4C242.2,8.8,247.2,8.8,247.2,8.8z"/>
	<path class="st0" d="M42.3,29.4v-1H65v1H42.3z"/>
</g>
</svg>
