<?xml version="1.0" encoding="utf-8"?>
<!-- Generator: Adobe Illustrator 21.1.0, SVG Export Plug-In . SVG Version: 6.00 Build 0)  -->
<svg version="1.1" id="Layer_1" xmlns="http://www.w3.org/2000/svg" xmlns:xlink="http://www.w3.org/1999/xlink" x="0px" y="0px"
	 viewBox="0 0 100 57" style="enable-background:new 0 0 100 57;" xml:space="preserve">
<style type="text/css">
	.st0{fill:#FFFFFF;}
</style>
<g>
	<g>
		<path class="st0" d="M49.5,5.8L6.1,49c-0.2,0.4-0.1,0.9,0,1.1l0.1,0.1L48.9,7.6c0.3-0.3,0.8-0.5,1.2-0.5s0.9,0.2,1.2,0.5
			l42.4,42.5l0,0c0-0.1,0.1-0.1,0.1-0.1c0.2-0.1,0.2-0.2,0.2-0.3c0-0.2-0.1-0.5-0.2-0.6L50.6,5.9c-0.2-0.2-0.3-0.2-0.5-0.2
			C49.9,5.6,49.7,5.7,49.5,5.8L49.5,5.8z"/>
		<path class="st0" d="M48.8,5.1L5.4,48.4c0,0,0,0-0.1,0.1c-0.5,0.7-0.4,1.8,0,2.3l0.4,0.4c0.1,0.1,0.2,0.2,0.3,0.2
			c0.1,0,0.3,0,0.4-0.1L49.5,8.2C49.7,8,49.9,8,50,8c0.2,0,0.3,0.1,0.5,0.2l42.9,43.1c0.1,0.1,0.2,0.2,0.4,0.1
			c0.1,0,0.3-0.1,0.4-0.2l0.3-0.4c0.3-0.2,0.5-0.6,0.5-1c0-0.1,0-0.1,0-0.2c0-0.5-0.2-0.9-0.5-1.3L51.3,5.1
			c-0.3-0.3-0.8-0.5-1.2-0.5C49.6,4.6,49.2,4.8,48.8,5.1z M50.5,5.8L93.8,49c0.1,0.2,0.2,0.5,0.2,0.7c0,0.1,0,0.2-0.2,0.3
			c-0.1,0-0.1,0.1-0.1,0.1l0,0L51.2,7.5C50.9,7.2,50.4,7,50,7s-0.9,0.2-1.2,0.5L6.2,50.2l-0.1-0.1c-0.1-0.2-0.2-0.7,0-1.1L49.5,5.8
			l0,0c0.2-0.2,0.3-0.2,0.5-0.2S50.4,5.7,50.5,5.8z"/>
	</g>
</g>
</svg>
