<?xml version="1.0" encoding="utf-8"?>
<!-- Generator: Adobe Illustrator 21.1.0, SVG Export Plug-In . SVG Version: 6.00 Build 0)  -->
<svg version="1.1" id="Layer_1" xmlns="http://www.w3.org/2000/svg" xmlns:xlink="http://www.w3.org/1999/xlink" x="0px" y="0px"
	 viewBox="0 0 320 48" style="enable-background:new 0 0 320 48;" xml:space="preserve">
<style type="text/css">
	.st0{fill:#FFFFFF;}
</style>
<title>page_titles</title>
<g>
	<path class="st0" d="M37,13.6c3.8,0,4.8,3,4.8,6.7S40.8,27,37,27c-3.8,0-4.8-3-4.8-6.7S33.2,13.6,37,13.6z M37,25
		c2.2,0,2.7-2.1,2.7-4.7s-0.6-4.7-2.7-4.7c-2.1,0-2.7,2.1-2.7,4.7S34.8,25,37,25L37,25z"/>
	<path class="st0" d="M48.7,20.1c-1.2,0-2.3,0.4-3.2,1.2l-1.2-0.9l1.1-6.6h7.1v1.9H47L46.4,19c0.7-0.5,1.6-0.7,2.4-0.7
		c2.3-0.2,4.2,1.5,4.4,3.8c0,0.2,0,0.3,0,0.5c0,2.7-2,4.5-5,4.5c-1.9,0-3.6-1.2-4.4-2.9c0.4-0.2,1.4-0.8,1.7-1
		c0.4,1.1,1.5,1.9,2.7,1.9c2,0,3-1.1,3-2.5c0-1.3-1-2.4-2.3-2.4C48.9,20.1,48.8,20.1,48.7,20.1z"/>
	<path class="st0" d="M70.1,8.7h12.6c6.8,0,9.6,5,9.6,10s-2.8,9.9-9.6,9.9H75v11.5h-4.9V8.7z M74.9,13.2v11h7.5c3.5,0,5-2.8,5-5.5
		s-1.5-5.5-4.8-5.5H74.9z"/>
	<path class="st0" d="M101.3,40.1h-4.7V18.8h4.7v4.9c1.1-3.8,3.2-5.3,5.8-5.3c1.3,0,2.6,0.2,3.8,0.8l-0.8,4.3c-1-0.5-2-0.7-3.1-0.7
		c-4,0-5.7,4-5.7,9.7L101.3,40.1z"/>
	<path class="st0" d="M113,29.4c-0.2-5.9,4.5-10.8,10.4-11c0.2,0,0.4,0,0.7,0c6.1,0,11.2,4.3,11.2,11c0,6.1-5,11.1-11.1,11.1
		S113,35.5,113,29.4z M130.5,29.4c0-3.6-2.9-6.4-6.4-6.4s-6.4,2.9-6.4,6.4l0,0c-0.1,3.6,2.6,6.6,6.2,6.7s6.6-2.6,6.7-6.2
		C130.5,29.7,130.5,29.6,130.5,29.4z"/>
	<path class="st0" d="M156.9,37c-1.3,2.3-4.3,3.5-7.2,3.5c-5.7,0-10.6-4.4-10.6-11.1s4.9-11.1,10.6-11.1c3,0,5.9,1.2,7.2,3.5V7.3
		h4.6v32.8h-4.6V37z M150.3,22.9c-3.4-0.1-6.3,2.6-6.4,6c0,0.2,0,0.3,0,0.5c-0.1,3.6,2.6,6.6,6.2,6.7c3.6,0.1,6.6-2.6,6.7-6.2
		c0-0.2,0-0.3,0-0.5c0.1-3.5-2.7-6.4-6.2-6.5C150.5,22.9,150.4,22.9,150.3,22.9z"/>
	<path class="st0" d="M182.4,18.8h4.7v21.3h-4.7V37c-1.3,2.2-3.7,3.6-6.3,3.5c-5.2,0-8.3-3.3-8.2-9.3V18.8h4.7v11.8
		c0,3.5,1.9,5.3,4.4,5.3c2.7,0,5.5-1.5,5.5-5.7L182.4,18.8z"/>
	<path class="st0" d="M203.7,18.4c3.2-0.1,6.3,1.3,8.4,3.7l-3.6,2.9c-1.2-1.3-3-2.1-4.8-2c-3.5-0.1-6.5,2.6-6.7,6.2
		c0,0.1,0,0.2,0,0.3c0,3.6,2.9,6.6,6.5,6.7c0.1,0,0.1,0,0.2,0c1.8,0,3.6-0.7,4.8-2.1l3.7,2.9c-4.2,4.7-11.4,5.1-16.1,0.9
		c-2.4-2.1-3.7-5.2-3.8-8.3C192.3,22.6,197.6,18.4,203.7,18.4z"/>
	<path class="st0" d="M223.5,18.8h4.5v3.9h-4.5v17.4h-4.7V22.7H215v-3.9h3.8v-8h4.7V18.8z"/>
	<path class="st0" d="M234.7,7.3c1.6-0.3,3.2,0.8,3.4,2.5c0.3,1.6-0.8,3.2-2.5,3.4c-0.3,0.1-0.7,0.1-1,0c-1.7,0-3.1-1.3-3.1-3l0,0
		C231.7,8.5,233.1,7.2,234.7,7.3z M237.1,18.8h-4.6v21.3h4.6V18.8z"/>
	<path class="st0" d="M242.3,29.4c-0.2-5.9,4.5-10.8,10.4-11c0.2,0,0.4,0,0.7,0c6.1,0,11.2,4.3,11.2,11c0,6.1-5,11.1-11.1,11.1
		C247.3,40.5,242.3,35.5,242.3,29.4L242.3,29.4z M259.8,29.4c-0.1-3.6-3.1-6.3-6.7-6.2c-3.4,0.1-6.1,2.8-6.2,6.2
		c-0.1,3.6,2.6,6.6,6.2,6.7c3.6,0.1,6.6-2.6,6.7-6.2C259.8,29.7,259.8,29.6,259.8,29.4z"/>
	<path class="st0" d="M274.4,40.1h-4.7V18.8h4.7V22c1.4-2.3,3.8-3.7,6.5-3.6c5.1,0,8.1,3.3,8.1,9.3v12.4h-4.7V28.3
		c0-3.4-1.7-5.3-4.5-5.3s-5.5,1.5-5.5,5.7L274.4,40.1z"/>
	<path class="st0" d="M31,29.3v-1h23.4v1H31z"/>
</g>
</svg>
