<?xml version="1.0" encoding="utf-8"?>
<!-- Generator: Adobe Illustrator 21.1.0, SVG Export Plug-In . SVG Version: 6.00 Build 0)  -->
<svg version="1.1" id="Layer_1" xmlns="http://www.w3.org/2000/svg" xmlns:xlink="http://www.w3.org/1999/xlink" x="0px" y="0px"
	 viewBox="0 0 320 48" style="enable-background:new 0 0 320 48;" xml:space="preserve">
<style type="text/css">
	.st0{fill:#FFFFFF;}
</style>
<title>page_titles</title>
<g>
	<path class="st0" d="M14.8,13.6c3.8,0,4.8,3,4.8,6.7s-1,6.7-4.8,6.7S10,24,10,20.3S11,13.6,14.8,13.6z M14.8,25
		c2.2,0,2.7-2.1,2.7-4.7s-0.6-4.7-2.7-4.7s-2.7,2.1-2.7,4.7S12.6,25,14.8,25L14.8,25z"/>
	<path class="st0" d="M25.8,13.6v13.2h-2V16.4l-2.2,0.8v-1.9L25.8,13.6z"/>
	<path class="st0" d="M44.1,8.7L50.8,32l6.7-23.3h5L53,40.1h-4.5L39,8.7H44.1z"/>
	<path class="st0" d="M69.3,7.3c1.6-0.3,3.2,0.8,3.4,2.5c0.3,1.6-0.8,3.2-2.5,3.4c-0.3,0.1-0.7,0.1-1,0c-1.7,0-3.1-1.3-3.1-3l0,0
		C66.2,8.5,67.6,7.2,69.3,7.3z M71.6,18.8h-4.7v21.3h4.7V18.8z"/>
	<path class="st0" d="M77.2,24c0.3-3.1,3.7-5.6,7.6-5.6s7.5,1.7,7.7,6.3h-4.4c-0.2-1.6-1.6-2.3-3.1-2.3c-1.1-0.1-2.2,0.4-3,1.2
		c-0.4,0.6-0.4,1.3-0.2,1.9c0.3,0.8,1.5,1.3,2.6,1.6l3.3,0.8c4.6,1.2,5.6,4.1,5.6,6.2c0,4.1-3.6,6.4-8.5,6.4c-4,0-8.1-2.5-8.2-7h4.3
		c0.2,1.8,1.7,3,4.2,3c2.1,0,3.8-1,3.8-2.5c0-1.4-1.4-2.1-3-2.5l-2.8-0.6C78.6,29.7,76.9,27.4,77.2,24z"/>
	<path class="st0" d="M112.7,18.8h4.7v21.3h-4.7V37c-1.3,2.2-3.7,3.6-6.3,3.5c-5.2,0-8.3-3.3-8.2-9.3V18.8h4.7v11.8
		c0,3.5,1.9,5.3,4.4,5.3c2.7,0,5.5-1.5,5.5-5.7L112.7,18.8z"/>
	<path class="st0" d="M140.4,37.1c-1.4,2.3-4.5,3.5-7.1,3.5c-5.9,0.1-10.7-4.7-10.8-10.6c0-0.2,0-0.4,0-0.5
		c-0.2-5.9,4.3-10.8,10.2-11.1c0.2,0,0.4,0,0.6,0c2.6,0,5.7,1,7.1,3.5v-3h4.6v21.2h-4.6V37.1z M133.9,36.1c3.5,0.1,6.4-2.6,6.6-6.1
		c0-0.2,0-0.3,0-0.5c0.1-3.5-2.8-6.4-6.3-6.5c-0.1,0-0.2,0-0.3,0c-3.5-0.1-6.4,2.6-6.5,6.1c0,0.1,0,0.2,0,0.4
		c-0.1,3.5,2.7,6.5,6.3,6.5C133.8,36,133.9,36,133.9,36.1L133.9,36.1z"/>
	<path class="st0" d="M151.7,7.3h4.7v32.8h-4.7V7.3z"/>
	<path class="st0" d="M175.4,8.7h18.9v4.5h-14.1v9.3h12.3v4.4h-12.3v8.8h14.5v4.4h-19.4V8.7H175.4z"/>
	<path class="st0" d="M229.4,11.8h-2.4c-3.1,0-3.8,2.4-3.8,5.1v2h4.8v3.8h-4.8v17.4h-4.7V22.7h-12.1v17.4h-4.7V22.7h-4.1v-3.9h4.1
		v-2c0-5.8,2.7-9.6,8.5-9.6h2.3v4.5h-2.3c-3.1,0-3.8,2.4-3.8,5.1v2h12.2v-2c0-5.8,2.7-9.6,8.5-9.6h2.3V11.8z"/>
	<path class="st0" d="M252.4,31.1h-16.9c0.5,3.3,3.1,5.3,6.5,5.3c2.3,0.1,4.5-1.1,5.8-3c1.2,0.5,2.6,1.1,3.8,1.7
		c-1.9,3.7-5.8,5.5-9.8,5.5c-6.1,0-10.9-4.4-10.9-11.2c-0.2-5.8,4.3-10.8,10.1-11c0.3,0,0.5,0,0.8,0c6.1,0,10.7,4.3,10.7,11
		C252.4,29.9,252.4,30.7,252.4,31.1z M247.8,27.7c-0.3-3.1-3-5.4-6.1-5.2c-3.1-0.2-5.9,2.1-6.3,5.2
		C235.3,27.7,247.8,27.7,247.8,27.7z"/>
	<path class="st0" d="M267.4,18.4c3.2-0.1,6.3,1.3,8.4,3.7L272,25c-1.2-1.3-3-2.1-4.8-2c-3.5-0.1-6.5,2.6-6.7,6.2c0,0.1,0,0.2,0,0.3
		c0,3.6,2.9,6.6,6.5,6.7c0.1,0,0.1,0,0.2,0c1.8,0,3.6-0.7,4.8-2.1l3.7,2.9c-4.2,4.7-11.4,5-16.1,0.8c-2.3-2.1-3.7-5.1-3.7-8.2
		C255.9,22.7,261.3,18.4,267.4,18.4z"/>
	<path class="st0" d="M287.2,18.8h4.5v3.9h-4.5v17.4h-4.7V22.7h-3.8v-3.9h3.8v-8h4.7V18.8z"/>
	<path class="st0" d="M295.2,24c0.3-3.1,3.7-5.6,7.6-5.6s7.5,1.7,7.7,6.3h-4.4c-0.2-1.6-1.6-2.3-3.1-2.3c-1.1-0.1-2.2,0.4-3,1.2
		c-0.4,0.6-0.4,1.3-0.2,1.9c0.3,0.8,1.5,1.3,2.6,1.6l3.3,0.8c4.6,1.1,5.6,4.1,5.6,6.2c0,4.1-3.6,6.4-8.5,6.4c-4,0-8.1-2.5-8.1-7h4.3
		c0.2,1.8,1.7,3,4.2,3c2.1,0,3.8-1,3.8-2.5c0-1.4-1.4-2.1-3-2.5l-2.8-0.6C296.6,29.7,294.9,27.4,295.2,24z"/>
	<path class="st0" d="M8.8,29.3v-1h18.9v1H8.8z"/>
</g>
</svg>
